:SAMPLES-PER-SECOND 30
:FULLY-SPECIFIED
:DEGREES
302
root  -1.62979 36.5536 0.258348 146.94 -76.8565 -146.653
RightUpLeg  -20.3176 -28.8639 -13.1331
RightLeg  31.3428 18.6123 11.644
RightFoot  3.61202 -4.19455 31.3282
RightToes  -6.40286e-010 0 -3.6325e-017
Spine  20.5891 -9.53748 -20.7609
Spine1  -22.0366 -11.463 31.011
HEad  2.90727 41.8928 1.56626
LeftShoulder1  0.211009 5.612 21.0585
LeftArm  -30.8001 -17.2534 -3.34669
LeftForeArm  22.2623 -5.72527 -7.33649
LeftHand  -0.487533 2.90124 22.5023
RightShoulder  -0.292423 -9.83001 -4.382
RightArm  -32.7421 -34.5702 28.5153
RightForeArm  -7.99672 10.9715 4.04511
RightHand  -0.551304 -0.915171 -14.2559
LeftUpLeg  6.74361 24.8472 46.0861
LeftLeg  1.43656 13.1652 6.11026
LeftFoot  43.1039 11.1582 -22.0641
LeftToes  -2.09187e-010 -4.93792e-011 -8.21189e-011
303
root  -1.59638 35.961 -0.448727 147.812 -75.8427 -147.846
RightUpLeg  -21.4977 -27.8392 -11.9092
RightLeg  35.711 18.1041 13.2717
RightFoot  -4.11613 -1.95433 29.7347
RightToes  -6.40286e-010 0 -3.6325e-017
Spine  20.4824 -9.65826 -20.3371
Spine1  -21.9031 -11.5247 31.7502
HEad  1.34553 43.0595 0.0346465
LeftShoulder1  0.0771951 4.61053 17.6009
LeftArm  -30.2094 -15.0511 -8.61577
LeftForeArm  19.8542 -5.62353 -7.20225
LeftHand  -0.471892 3.00128 22.7015
RightShoulder  -0.241552 -10.1564 -5.49137
RightArm  -29.155 -28.999 19.5296
RightForeArm  -7.3286 11.2818 4.764
RightHand  -0.56128 -0.997093 -14.7765
LeftUpLeg  7.12973 23.9087 47.5727
LeftLeg  2.51013 13.1987 7.25452
LeftFoot  42.8855 11.3434 -22.5122
LeftToes  -2.09187e-010 -4.93792e-011 -8.21189e-011
304
root  -1.47776 35.3083 -1.00068 148.179 -75.291 -147.962
RightUpLeg  -24.1139 -25.1677 -10.5375
RightLeg  40.3516 15.1998 13.1585
RightFoot  -10.174 -0.350425 27.5395
RightToes  -6.40286e-010 0 -3.6325e-017
Spine  20.385 -9.42224 -19.8158
Spine1  -22.2122 -11.085 33.0371
HEad  0.148581 43.6413 -0.831299
LeftShoulder1  0.00493035 3.63339 14.4986
LeftArm  -30.4221 -12.2506 -14.6221
LeftForeArm  17.763 -5.73473 -6.86741
LeftHand  -0.525293 2.81968 23.4742
RightShoulder  -0.174412 -10.7295 -6.87188
RightArm  -27.4755 -23.0841 11.7991
RightForeArm  -6.58761 11.6849 5.16123
RightHand  -0.553962 -1.08426 -14.8684
LeftUpLeg  5.86179 19.7128 48.3594
LeftLeg  5.63004 16.7859 8.12307
LeftFoot  41.3247 11.5344 -23.6291
LeftToes  -2.09187e-010 -4.93792e-011 -8.21189e-011
305
root  -1.29756 34.5645 -1.43421 149.386 -75.4519 -148.746
RightUpLeg  -27.8126 -21.7672 -10.1017
RightLeg  45.9869 11.593 12.2821
RightFoot  -14.3139 0.61901 26.9532
RightToes  -6.40286e-010 0 -3.6325e-017
Spine  20.5718 -9.16002 -19.3225
Spine1  -23.1005 -10.4709 33.3684
HEad  -1.08754 43.7369 -0.689715
LeftShoulder1  -0.00989896 2.96537 11.6045
LeftArm  -30.4311 -8.58621 -20.2007
LeftForeArm  15.9135 -6.84191 -6.77472
LeftHand  -0.55013 2.93899 25.825
RightShoulder  -0.0972056 -11.317 -8.20812
RightArm  -27.827 -17.5944 6.06198
RightForeArm  -5.09967 13.0137 5.25342
RightHand  -0.549763 -1.05596 -14.6639
LeftUpLeg  3.51496 11.6508 48.8465
LeftLeg  11.1225 23.2524 8.35336
LeftFoot  37.9644 12.03 -26.4206
LeftToes  -2.09187e-010 -4.93792e-011 -8.21189e-011
306
root  -1.11503 33.84 -1.6493 150.583 -76.4688 -149.546
RightUpLeg  -31.201 -19.9253 -10.8826
RightLeg  51.3253 9.40871 12.0533
RightFoot  -16.6794 1.21115 27.9137
RightToes  -6.40286e-010 0 -3.6325e-017
Spine  20.9104 -9.12353 -18.4566
Spine1  -23.8329 -10.1062 32.8557
HEad  -3.07751 43.0182 -0.500765
LeftShoulder1  0.00948943 2.56412 8.50154
LeftArm  -29.0013 -3.8961 -24.8697
LeftForeArm  12.5679 -9.55229 -7.07
LeftHand  -0.465099 3.53903 28.9247
RightShoulder  -0.0367731 -11.6689 -9.10708
RightArm  -28.8958 -12.748 1.47739
RightForeArm  -3.80853 15.3257 5.19474
RightHand  -0.583124 -0.764888 -14.6022
LeftUpLeg  0.635685 6.64011 49.4085
LeftLeg  16.568 25.1678 8.36293
LeftFoot  33.5683 12.3646 -29.9064
LeftToes  -2.09187e-010 -4.93792e-011 -8.21189e-011
307
root  -0.939398 33.2627 -1.59615 151.426 -78.1451 -149.817
RightUpLeg  -33.7038 -20.3772 -12.2579
RightLeg  55.0012 8.56025 12.5219
RightFoot  -18.1148 1.60251 28.6272
RightToes  -6.40286e-010 0 -3.6325e-017
Spine  21.2678 -9.14147 -16.9577
Spine1  -24.358 -9.8464 31.9312
HEad  -5.58697 41.4322 -0.859262
LeftShoulder1  0.0539663 2.14089 5.15839
LeftArm  -25.1323 1.44032 -29.2139
LeftForeArm  7.35021 -13.3102 -7.08654
LeftHand  -0.348123 4.1177 31.5315
RightShoulder  0.0129914 -11.8436 -9.79216
RightArm  -30.2698 -8.81437 -2.64614
RightForeArm  -3.48241 18.4864 5.03049
RightHand  -0.644494 -0.283193 -14.658
LeftUpLeg  -2.56481 8.98478 49.482
LeftLeg  19.9952 19.5546 7.96235
LeftFoot  28.9559 12.318 -33.2996
LeftToes  -2.09187e-010 -4.93792e-011 -8.21189e-011
308
root  -0.722481 32.7872 -1.28424 153.451 -79.8851 -151.091
RightUpLeg  -35.8202 -21.9148 -13.9134
RightLeg  57.2741 8.19993 13.069
RightFoot  -18.9818 1.834 28.8329
RightToes  -6.40286e-010 0 -3.6325e-017
Spine  21.8525 -8.81858 -14.4204
Spine1  -25.2786 -9.10676 29.8932
HEad  -8.56797 39.2807 -1.71534
LeftShoulder1  0.118798 1.72803 1.98705
LeftArm  -20.6462 6.69378 -33.8179
LeftForeArm  3.14298 -16.6857 -6.52817
LeftHand  -0.309166 4.32979 33.7582
RightShoulder  0.0661928 -11.9124 -10.5074
RightArm  -32.5263 -6.24577 -6.39832
RightForeArm  -3.68607 22.3708 5.09191
RightHand  -0.680748 -0.0335437 -14.7783
LeftUpLeg  -5.92621 11.9742 48.9194
LeftLeg  23.3697 13.8539 6.77785
LeftFoot  24.0031 12.1163 -37.3642
LeftToes  -2.09187e-010 -4.93792e-011 -8.21189e-011
309
root  -0.456999 32.334 -0.760309 157.461 -81.254 -154.382
RightUpLeg  -37.8605 -23.3201 -15.8522
RightLeg  58.8275 8.02336 13.59
RightFoot  -19.0106 1.88817 29.5036
RightToes  -6.40286e-010 0 -3.6325e-017
Spine  22.6013 -8.0681 -10.418
Spine1  -26.4499 -7.77598 25.4904
HEad  -12.5431 36.6252 -2.93731
LeftShoulder1  0.175429 1.56278 -0.690517
LeftArm  -17.7578 11.1343 -38.5696
LeftForeArm  1.91469 -18.5905 -6.00567
LeftHand  -0.298999 4.41745 35.8118
RightShoulder  0.107649 -11.9022 -11.0664
RightArm  -35.5798 -4.93904 -9.99817
RightForeArm  -3.67713 26.1785 5.79596
RightHand  -0.694343 -0.228669 -15.6257
LeftUpLeg  -9.32588 14.6638 47.9473
LeftLeg  27.4417 8.61673 5.14972
LeftFoot  18.8596 11.6405 -41.8602
LeftToes  -2.09187e-010 -4.93792e-011 -8.21189e-011
310
root  -0.190203 31.9588 -0.0640007 162.808 -82.5326 -159.04
RightUpLeg  -39.4829 -24.6963 -18.1183
RightLeg  59.5252 8.04099 14.0041
RightFoot  -18.1395 1.72971 30.5291
RightToes  -6.40286e-010 0 -3.6325e-017
Spine  23.103 -7.11763 -5.30233
Spine1  -27.2288 -6.30173 18.8847
HEad  -17.0046 33.2144 -4.2405
LeftShoulder1  0.208156 1.61192 -2.89377
LeftArm  -16.723 14.5993 -43.0541
LeftForeArm  2.94962 -18.8371 -5.94695
LeftHand  -0.30215 4.43206 36.7645
RightShoulder  0.13453 -11.9265 -11.4229
RightArm  -37.8627 -4.03444 -13.7069
RightForeArm  -4.25625 28.775 6.46022
RightHand  -0.750541 -0.431474 -17.5156
LeftUpLeg  -12.9519 17.0757 46.5332
LeftLeg  31.8736 3.69324 2.81088
LeftFoot  14.1185 10.5064 -44.6976
LeftToes  -2.09187e-010 -4.93792e-011 -8.21189e-011
311
root  0.0469734 31.73 0.774763 171.916 -84.3488 -167.327
RightUpLeg  -40.2935 -26.6022 -20.9303
RightLeg  59.0561 8.15801 13.9456
RightFoot  -16.7983 1.40206 31.0932
RightToes  -6.40286e-010 0 -3.6325e-017
Spine  23.3734 -6.08491 -0.140713
Spine1  -27.9294 -4.9132 11.5187
HEad  -20.3237 28.959 -5.14439
LeftShoulder1  0.226969 1.69137 -4.60248
LeftArm  -16.9934 17.7197 -47.0659
LeftForeArm  5.10305 -17.7878 -6.37018
LeftHand  -0.408883 4.09648 36.4927
RightShoulder  0.172381 -12.0329 -11.9027
RightArm  -39.8286 -2.90859 -17.2651
RightForeArm  -5.23833 29.7945 6.76621
RightHand  -0.876297 -0.112626 -19.239
LeftUpLeg  -17.147 19.8865 44.0868
LeftLeg  36.2404 -1.00659 -0.438726
LeftFoot  10.0702 8.90048 -45.1166
LeftToes  -2.09187e-010 -4.93792e-011 -8.21189e-011
312
root  0.261255 31.6107 1.72919 -160.815 -86.5303 166.326
RightUpLeg  -40.0427 -28.8029 -24.5632
RightLeg  57.5341 8.23298 13.2593
RightFoot  -15.2557 0.995899 31.4599
RightToes  -6.40286e-010 0 -3.6325e-017
Spine  23.8242 -4.93213 4.50732
Spine1  -29.3155 -3.57857 3.99278
HEad  -21.8791 23.8485 -5.5028
LeftShoulder1  0.227288 1.80328 -5.55287
LeftArm  -17.9706 21.1061 -50.5739
LeftForeArm  7.12036 -15.9699 -7.18969
LeftHand  -0.513495 3.77241 36.4416
RightShoulder  0.22066 -12.0756 -12.53
RightArm  -42.3629 -1.83177 -20.0751
RightForeArm  -6.63997 30.15 6.92963
RightHand  -0.992401 0.544171 -19.4127
LeftUpLeg  -21.9352 23.0984 40.2585
LeftLeg  40.5175 -5.15259 -4.33165
LeftFoot  6.65229 7.30782 -44.2552
LeftToes  -2.09187e-010 -4.93792e-011 -8.21189e-011
313
root  0.449269 31.5689 2.78184 -101.293 -87.278 107.733
RightUpLeg  -38.5861 -30.6967 -28.7368
RightLeg  55.0067 8.1824 11.9755
RightFoot  -13.2313 0.453303 32.2534
RightToes  -6.40286e-010 0 -3.6325e-017
Spine  24.3944 -3.6122 9.08013
Spine1  -30.858 -2.28644 -4.04079
HEad  -22.6271 17.6006 -5.71309
LeftShoulder1  0.188812 2.10886 -5.73465
LeftArm  -19.0449 24.6129 -53.3846
LeftForeArm  8.20184 -13.731 -8.26296
LeftHand  -0.457159 3.96829 37.0256
RightShoulder  0.246625 -11.9484 -12.92
RightArm  -45.3571 -1.42988 -21.9251
RightForeArm  -8.72171 31.0037 7.25807
RightHand  -0.979707 0.785993 -18.4235
LeftUpLeg  -26.9963 26.0596 35.469
LeftLeg  44.6065 -8.27965 -8.26045
LeftFoot  3.87027 5.92685 -42.6261
LeftToes  -2.09187e-010 -4.93792e-011 -8.21189e-011
314
root  0.585578 31.6808 3.96166 -53.8907 -85.2232 61.3195
RightUpLeg  -35.8072 -32.0874 -32.8817
RightLeg  50.8723 7.82214 9.85211
RightFoot  -10.1978 -0.406763 33.0034
RightToes  -6.40286e-010 0 -3.6325e-017
Spine  24.6029 -1.9959 13.8801
Spine1  -31.5044 -0.786618 -12.0517
HEad  -23.2614 10.0652 -6.2543
LeftShoulder1  0.0970503 2.78054 -5.63435
LeftArm  -19.8392 27.9506 -55.0625
LeftForeArm  9.28378 -11.3611 -9.33443
LeftHand  -0.360721 4.26556 37.1539
RightShoulder  0.245604 -11.7406 -12.9887
RightArm  -47.8968 -1.73712 -22.9374
RightForeArm  -11.2963 32.5468 7.80194
RightHand  -0.888734 0.41044 -17.8053
LeftUpLeg  -31.9057 28.445 30.1173
LeftLeg  48.0785 -10.4531 -11.8189
LeftFoot  1.58411 4.66576 -39.7071
LeftToes  -2.09187e-010 -4.93792e-011 -8.21189e-011
315
root  0.646532 31.9616 5.26606 -39.4588 -82.3102 47.9061
RightUpLeg  -31.5771 -32.586 -37.0034
RightLeg  44.6938 6.66092 6.72554
RightFoot  -6.09475 -1.61207 33.3716
RightToes  -6.40286e-010 0 -3.6325e-017
Spine  24.5385 0.0795609 18.2505
Spine1  -31.5164 1.21928 -18.9129
HEad  -23.3185 1.7682 -7.25268
LeftShoulder1  -0.0482415 3.86408 -5.4751
LeftArm  -20.2998 31.4657 -55.344
LeftForeArm  11.3717 -9.47866 -10.0536
LeftHand  -0.348759 4.28651 36.6417
RightShoulder  0.235417 -11.4621 -12.962
RightArm  -49.3643 -2.22822 -23.145
RightForeArm  -13.7247 33.9904 8.32634
RightHand  -0.851725 0.0855352 -18.0466
LeftUpLeg  -36.1129 30.408 24.3241
LeftLeg  50.7264 -12.3123 -15.2315
LeftFoot  -0.647193 3.47553 -35.9506
LeftToes  -2.09187e-010 -4.93792e-011 -8.21189e-011
316
root  0.637938 32.3128 6.60371 -34.3347 -79.2851 43.4899
RightUpLeg  -25.7974 -31.1806 -41.4848
RightLeg  36.7286 3.83011 2.82437
RightFoot  -1.04637 -3.22074 34.5293
RightToes  -6.40286e-010 0 -3.6325e-017
Spine  24.8011 2.52617 21.293
Spine1  -31.6246 3.60277 -24.2584
HEad  -22.4817 -6.35622 -8.55223
LeftShoulder1  -0.225714 5.29687 -4.67464
LeftArm  -20.4491 35.5272 -54.5201
LeftForeArm  13.3441 -8.92662 -10.2297
LeftHand  -0.338675 4.31257 36.4729
RightShoulder  0.204077 -10.9021 -12.7295
RightArm  -49.6651 -2.62367 -22.6754
RightForeArm  -15.4911 34.3494 8.51826
RightHand  -0.898266 0.203174 -18.6266
LeftUpLeg  -39.0282 32.1372 18.4173
LeftLeg  52.7427 -14.1739 -18.6825
LeftFoot  -2.84483 2.49731 -32.581
LeftToes  -2.09187e-010 -4.93792e-011 -8.21189e-011
